<svg width="40" height="40" viewBox="0 0 40 40" fill="none" xmlns="http://www.w3.org/2000/svg">
<path d="M36.6666 35.4167H3.33325C2.64992 35.4167 2.08325 35.9833 2.08325 36.6667C2.08325 37.35 2.64992 37.9167 3.33325 37.9167H36.6666C37.3499 37.9167 37.9166 37.35 37.9166 36.6667C37.9166 35.9833 37.3499 35.4167 36.6666 35.4167Z" fill="white"/>
<path d="M28.3333 3.33334H11.6667C6.66667 3.33334 5 6.31668 5 10V36.6667H35V10C35 6.31668 33.3333 3.33334 28.3333 3.33334ZM16.6667 28.75H11.6667C10.9833 28.75 10.4167 28.1833 10.4167 27.5C10.4167 26.8167 10.9833 26.25 11.6667 26.25H16.6667C17.35 26.25 17.9167 26.8167 17.9167 27.5C17.9167 28.1833 17.35 28.75 16.6667 28.75ZM16.6667 21.25H11.6667C10.9833 21.25 10.4167 20.6833 10.4167 20C10.4167 19.3167 10.9833 18.75 11.6667 18.75H16.6667C17.35 18.75 17.9167 19.3167 17.9167 20C17.9167 20.6833 17.35 21.25 16.6667 21.25ZM16.6667 13.75H11.6667C10.9833 13.75 10.4167 13.1833 10.4167 12.5C10.4167 11.8167 10.9833 11.25 11.6667 11.25H16.6667C17.35 11.25 17.9167 11.8167 17.9167 12.5C17.9167 13.1833 17.35 13.75 16.6667 13.75ZM28.3333 28.75H23.3333C22.65 28.75 22.0833 28.1833 22.0833 27.5C22.0833 26.8167 22.65 26.25 23.3333 26.25H28.3333C29.0167 26.25 29.5833 26.8167 29.5833 27.5C29.5833 28.1833 29.0167 28.75 28.3333 28.75ZM28.3333 21.25H23.3333C22.65 21.25 22.0833 20.6833 22.0833 20C22.0833 19.3167 22.65 18.75 23.3333 18.75H28.3333C29.0167 18.75 29.5833 19.3167 29.5833 20C29.5833 20.6833 29.0167 21.25 28.3333 21.25ZM28.3333 13.75H23.3333C22.65 13.75 22.0833 13.1833 22.0833 12.5C22.0833 11.8167 22.65 11.25 23.3333 11.25H28.3333C29.0167 11.25 29.5833 11.8167 29.5833 12.5C29.5833 13.1833 29.0167 13.75 28.3333 13.75Z" fill="white"/>
</svg>
