<svg width="20" height="18" viewBox="0 0 20 18" fill="none" xmlns="http://www.w3.org/2000/svg">
<path d="M14.2294 12.4866L13.583 13.3657C13.454 13.5411 13.2833 13.6908 13.0584 13.7447C12.3218 13.9212 10.3661 14.0009 7.38868 11.3016C4.41123 8.60225 4.4991 6.82925 4.69375 6.16142C4.75317 5.95754 4.91832 5.80283 5.11186 5.68586L6.0815 5.09982C6.80342 4.6635 6.9985 3.77923 6.51722 3.12475L4.68589 0.634367C4.26581 0.0631067 3.45597 -0.155146 2.75989 0.115308L1.93377 0.436284C1.3062 0.680117 0.794282 1.11772 0.488936 1.67137C0.23383 2.13392 0.0361045 2.62101 0.0093147 3.13759C-0.0751107 4.76552 0.318635 8.77627 5.2464 13.2437C10.1742 17.7112 14.5982 18.0681 16.3938 17.9916C16.9636 17.9673 17.5009 17.788 18.0111 17.5567C18.6218 17.2799 19.1045 16.8158 19.3735 16.2469L19.7275 15.4979C20.0259 14.8669 19.7851 14.1327 19.155 13.7518L16.408 12.0916C15.6861 11.6553 14.7107 11.8321 14.2294 12.4866Z" fill="white"/>
</svg>
