<svg width="41" height="35" viewBox="0 0 41 35" fill="none" xmlns="http://www.w3.org/2000/svg">
<path d="M29.0417 8.32838C29.0417 12.1178 23.8384 18.8707 21.5535 21.5913C21.0054 22.32 19.9946 22.32 19.4465 21.5913C17.1616 18.8707 11.9583 12.1178 11.9583 8.32838C11.9583 3.72903 15.7807 0 20.5 0C25.2193 0 29.0417 3.72903 29.0417 8.32838ZM20.5 10.5493C22.0731 10.5493 23.3472 9.30696 23.3472 7.77315C23.3472 6.24004 22.0731 4.99703 20.5 4.99703C18.9269 4.99703 17.6528 6.24004 17.6528 7.77315C17.6528 9.30696 18.9269 10.5493 20.5 10.5493ZM30.2944 12.4787C30.33 12.3954 30.3656 12.3121 30.4012 12.2219L38.6582 9.00159C39.7828 8.56435 41 9.36942 41 10.5493V29.3436C41 30.0238 40.5729 30.6345 39.9252 30.8913L29.6111 34.9098V13.9084C29.8602 13.4295 30.088 12.9576 30.2944 12.4787ZM10.7056 12.4787C10.912 12.9576 11.1398 13.4295 11.3889 13.9084V31.3563L2.34255 34.889C1.22075 35.2637 0 34.5211 0 33.3413V14.5469C0 13.8667 0.425304 13.1935 1.07411 12.9992L9.79444 9.59845C9.96528 10.584 10.3141 11.5626 10.7056 12.4787ZM23.333 22.9794C24.3224 21.8342 25.8741 19.8701 27.3333 17.6978V35L13.6667 31.1898V17.6978C15.1259 19.8701 16.6776 21.8342 17.667 22.9794C19.1262 24.8186 21.8738 24.8186 23.333 22.9794Z" fill="white"/>
</svg>
