<?xml version="1.0" encoding="utf-8"?>
<!-- Uploaded to: SVG Repo, www.svgrepo.com, Generator: SVG Repo Mixer Tools -->
<svg fill="#000000" width="800px" height="800px" viewBox="-6 0 32 32" version="1.1" xmlns="http://www.w3.org/2000/svg">
<title>arrow-right</title>
<path d="M19.56 15.44l-6.8-6.92c-0.32-0.32-0.84-0.32-1.2 0-0.32 0.32-0.32 0.84 0 1.2l5.44 5.44h-16.2c-0.44 0-0.8 0.36-0.8 0.84s0.36 0.84 0.84 0.84h16.2l-5.48 5.44c-0.32 0.32-0.32 0.84 0 1.2 0.16 0.16 0.36 0.24 0.6 0.24 0.2 0 0.44-0.080 0.6-0.24l6.88-6.88c0 0 0.56-0.52-0.080-1.16z"></path>
</svg>