<svg width="40" height="40" viewBox="0 0 40 40" fill="none" xmlns="http://www.w3.org/2000/svg">
<path d="M35.4999 18.0667C36.1499 18.0667 36.6666 17.55 36.6666 16.9V15.35C36.6666 8.51665 34.5833 6.43332 27.7499 6.43332H12.2499C5.41659 6.43332 3.33325 8.51665 3.33325 15.35V16.1333C3.33325 16.7833 3.84992 17.3 4.49992 17.3C5.99992 17.3 7.21659 18.5167 7.21659 20.0167C7.21659 21.5167 5.99992 22.7167 4.49992 22.7167C3.84992 22.7167 3.33325 23.2333 3.33325 23.8833V24.6667C3.33325 31.5 5.41659 33.5833 12.2499 33.5833H27.7499C34.5833 33.5833 36.6666 31.5 36.6666 24.6667C36.6666 24.0167 36.1499 23.5 35.4999 23.5C33.9999 23.5 32.7833 22.2833 32.7833 20.7833C32.7833 19.2833 33.9999 18.0667 35.4999 18.0667ZM14.9999 14.8C15.9166 14.8 16.6666 15.55 16.6666 16.4667C16.6666 17.3833 15.9333 18.1333 14.9999 18.1333C14.0833 18.1333 13.3333 17.3833 13.3333 16.4667C13.3333 15.55 14.0666 14.8 14.9999 14.8ZM24.9999 26.4667C24.0666 26.4667 23.3166 25.7167 23.3166 24.8C23.3166 23.8833 24.0666 23.1333 24.9833 23.1333C25.8999 23.1333 26.6499 23.8833 26.6499 24.8C26.6499 25.7167 25.9333 26.4667 24.9999 26.4667ZM26.4999 15.8L15.2833 27.0167C15.0333 27.2667 14.7166 27.3833 14.3999 27.3833C14.0833 27.3833 13.7666 27.2667 13.5166 27.0167C13.0333 26.5333 13.0333 25.7333 13.5166 25.25L24.7333 14.0333C25.2166 13.55 26.0166 13.55 26.4999 14.0333C26.9833 14.5167 26.9833 15.3167 26.4999 15.8Z" fill="white"/>
</svg>
