<svg width="40" height="40" viewBox="0 0 40 40" fill="none" xmlns="http://www.w3.org/2000/svg">
<path d="M15 3.33334C10.6334 3.33334 7.08337 6.88334 7.08337 11.25C7.08337 15.5333 10.4334 19 14.8 19.15C14.9334 19.1333 15.0667 19.1333 15.1667 19.15C15.2 19.15 15.2167 19.15 15.25 19.15C15.2667 19.15 15.2667 19.15 15.2834 19.15C19.55 19 22.9 15.5333 22.9167 11.25C22.9167 6.88334 19.3667 3.33334 15 3.33334Z" fill="white"/>
<path d="M23.4667 23.5833C18.8167 20.4833 11.2334 20.4833 6.55006 23.5833C4.43339 25 3.26672 26.9167 3.26672 28.9667C3.26672 31.0167 4.43339 32.9167 6.53339 34.3167C8.86672 35.8833 11.9334 36.6667 15.0001 36.6667C18.0667 36.6667 21.1334 35.8833 23.4667 34.3167C25.5667 32.9 26.7334 31 26.7334 28.9333C26.7167 26.8833 25.5667 24.9833 23.4667 23.5833Z" fill="white"/>
<path d="M33.3167 12.2333C33.5834 15.4667 31.2834 18.3 28.1001 18.6833C28.0834 18.6833 28.0834 18.6833 28.0667 18.6833H28.0167C27.9167 18.6833 27.8167 18.6833 27.7334 18.7167C26.1167 18.8 24.6334 18.2833 23.5167 17.3333C25.2334 15.8 26.2167 13.5 26.0167 11C25.9001 9.64999 25.4334 8.41666 24.7334 7.36666C25.3667 7.04999 26.1001 6.84999 26.8501 6.78333C30.1167 6.49999 33.0334 8.93333 33.3167 12.2333Z" fill="white"/>
<path d="M36.65 27.65C36.5166 29.2667 35.4833 30.6667 33.75 31.6167C32.0833 32.5333 29.9833 32.9667 27.9 32.9167C29.1 31.8333 29.8 30.4833 29.9333 29.05C30.1 26.9833 29.1167 25 27.15 23.4167C26.0333 22.5333 24.7333 21.8333 23.3167 21.3167C27 20.25 31.6333 20.9667 34.4833 23.2667C36.0166 24.5 36.8 26.05 36.65 27.65Z" fill="white"/>
</svg>
